# xmcd
#
# Track frame offsets:
#	183
#	18343
#	31385
#	47385
#	61223
#	75323
#
# Disc length: 1206 seconds
#
# Revision: 1
# Processed by: cddbd v1.5.2PL0 Copyright (c) Steve Scherf et al.
# Submitted via: audiograbber 1.83.01
#
DISCID=3704b406
DTITLE=Christine Hunter - Meet Me at the Cafe
DYEAR=1991
DGENRE=Country
TTITLE0=Meet Me at the Cafe
TTITLE1=Three Days
TTITLE2=Flyin Home to You
TTITLE3=Coat of Many Colours
TTITLE4=If I Die Tonight
TTITLE5=Turn It Up
EXTD=
EXTT0=
EXTT1=
EXTT2=
EXTT3=
EXTT4=
EXTT5=
PLAYORDER=
